# xmcd
#
# Track frame offsets:
#	150
#	15600
#	29160
#	48555
#	65350
#	79830
#	96025
#	108555
#	124545
#	141115
#	155655
#	170190
#
# Disc length: 2499 seconds
#
# Revision: 1
# Processed by: cddbd v1.5.1PL0 Copyright (c) Steve Scherf et al.
# Submitted via: audiograbber 1.83.01
#
DISCID=a609c10c
DTITLE=Men Of Distinction - All DAy Music
DYEAR=1900
DGENRE=Beach Music
TTITLE0=Anna
TTITLE1=You've Got To Earn It
TTITLE2=Brand New Me
TTITLE3=In A Moment
TTITLE4=Sea Cruise
TTITLE5=Tears Tears Tears
TTITLE6=House Is Rockin'
TTITLE7=Until You Come Back To Me
TTITLE8=I Gave My Love A Cherry
TTITLE9=All Day Music
TTITLE10=You're So Wonderful, So Marvelous
TTITLE11=It's Now Or Never
EXTD=
EXTT0=
EXTT1=
EXTT2=
EXTT3=
EXTT4=
EXTT5=
EXTT6=
EXTT7=
EXTT8=
EXTT9=
EXTT10=
EXTT11=
PLAYORDER=
